<svg xmlns="http://www.w3.org/2000/svg" xmlns:xlink="http://www.w3.org/1999/xlink" width="500" zoomAndPan="magnify" viewBox="0 0 375 374.999991" height="500" preserveAspectRatio="xMidYMid meet" version="1.0"><defs><g/><clipPath id="329dbea61a"><path d="M 76 56 L 342 56 L 342 224 L 76 224 Z M 76 56 " clip-rule="nonzero"/></clipPath><clipPath id="6c97e941d8"><path d="M 77.582031 56.714844 L 313.871094 56.714844 C 314.777344 56.714844 315.683594 56.757812 316.585938 56.847656 C 317.488281 56.933594 318.382812 57.066406 319.273438 57.242188 C 320.164062 57.421875 321.042969 57.640625 321.910156 57.902344 C 322.777344 58.167969 323.632812 58.472656 324.46875 58.820312 C 325.308594 59.164062 326.125 59.550781 326.925781 59.980469 C 327.726562 60.40625 328.503906 60.871094 329.257812 61.375 C 330.011719 61.878906 330.738281 62.417969 331.441406 62.996094 C 332.140625 63.570312 332.8125 64.179688 333.457031 64.820312 C 334.097656 65.460938 334.707031 66.132812 335.28125 66.832031 C 335.855469 67.535156 336.394531 68.261719 336.898438 69.015625 C 337.402344 69.769531 337.871094 70.546875 338.296875 71.347656 C 338.726562 72.144531 339.113281 72.964844 339.460938 73.804688 C 339.808594 74.640625 340.113281 75.492188 340.375 76.363281 C 340.640625 77.230469 340.859375 78.109375 341.035156 79 C 341.214844 79.886719 341.347656 80.785156 341.433594 81.6875 C 341.523438 82.589844 341.566406 83.492188 341.566406 84.402344 L 341.566406 222.796875 C 341.570312 222.949219 341.539062 223.097656 341.484375 223.238281 C 341.425781 223.382812 341.339844 223.507812 341.234375 223.613281 C 341.125 223.722656 341 223.808594 340.859375 223.867188 C 340.71875 223.925781 340.570312 223.953125 340.417969 223.953125 C 340.265625 223.953125 340.117188 223.925781 339.976562 223.867188 C 339.835938 223.808594 339.710938 223.722656 339.601562 223.613281 C 339.496094 223.507812 339.410156 223.382812 339.355469 223.238281 C 339.296875 223.097656 339.265625 222.949219 339.269531 222.796875 L 339.269531 84.402344 C 339.269531 83.570312 339.226562 82.738281 339.144531 81.914062 C 339.0625 81.085938 338.941406 80.261719 338.777344 79.449219 C 338.617188 78.632812 338.414062 77.828125 338.171875 77.03125 C 337.929688 76.234375 337.652344 75.453125 337.332031 74.683594 C 337.015625 73.917969 336.660156 73.164062 336.265625 72.433594 C 335.875 71.699219 335.445312 70.988281 334.984375 70.296875 C 334.523438 69.605469 334.027344 68.9375 333.5 68.292969 C 332.972656 67.652344 332.414062 67.035156 331.824219 66.449219 C 331.238281 65.859375 330.621094 65.304688 329.980469 64.777344 C 329.335938 64.25 328.667969 63.753906 327.976562 63.292969 C 327.285156 62.828125 326.574219 62.402344 325.839844 62.011719 C 325.105469 61.617188 324.355469 61.265625 323.589844 60.945312 C 322.820312 60.628906 322.039062 60.347656 321.242188 60.105469 C 320.445312 59.867188 319.640625 59.664062 318.824219 59.5 C 318.007812 59.339844 317.1875 59.21875 316.359375 59.136719 C 315.53125 59.054688 314.703125 59.011719 313.871094 59.011719 L 77.582031 59.011719 C 77.429688 59.011719 77.28125 58.984375 77.140625 58.925781 C 77 58.867188 76.875 58.785156 76.769531 58.675781 C 76.660156 58.570312 76.578125 58.445312 76.519531 58.304688 C 76.460938 58.164062 76.429688 58.015625 76.429688 57.863281 C 76.429688 57.710938 76.460938 57.566406 76.519531 57.421875 C 76.578125 57.28125 76.660156 57.160156 76.769531 57.050781 C 76.875 56.941406 77 56.859375 77.140625 56.800781 C 77.28125 56.742188 77.429688 56.714844 77.582031 56.714844 Z M 77.582031 56.714844 " clip-rule="nonzero"/></clipPath><clipPath id="d89571bc8c"><path d="M 14.679688 37.652344 L 360.429688 37.652344 L 360.429688 249.902344 L 14.679688 249.902344 Z M 14.679688 37.652344 " clip-rule="nonzero"/></clipPath><clipPath id="dbb3904ccf"><path d="M 52.617188 58.648438 L 52.617188 73.078125 L 38.660156 73.078125 C 37.875 73.078125 37.09375 73.121094 36.3125 73.199219 C 35.53125 73.277344 34.753906 73.394531 33.984375 73.546875 C 33.214844 73.703125 32.457031 73.894531 31.703125 74.121094 C 30.953125 74.351562 30.214844 74.617188 29.492188 74.917969 C 28.765625 75.21875 28.058594 75.554688 27.363281 75.925781 C 26.671875 76.296875 26 76.699219 25.347656 77.136719 C 24.695312 77.570312 24.066406 78.039062 23.460938 78.535156 C 22.851562 79.035156 22.273438 79.5625 21.71875 80.117188 C 21.160156 80.671875 20.636719 81.253906 20.136719 81.859375 C 19.640625 82.464844 19.171875 83.09375 18.734375 83.75 C 18.296875 84.402344 17.894531 85.074219 17.523438 85.765625 C 17.152344 86.457031 16.816406 87.164062 16.515625 87.890625 C 16.214844 88.613281 15.949219 89.351562 15.722656 90.105469 C 15.492188 90.855469 15.300781 91.613281 15.148438 92.386719 C 14.992188 93.15625 14.875 93.929688 14.796875 94.710938 C 14.71875 95.492188 14.679688 96.273438 14.679688 97.058594 L 14.679688 225.816406 C 14.679688 226.597656 14.71875 227.382812 14.796875 228.160156 C 14.875 228.941406 14.992188 229.714844 15.148438 230.484375 C 15.300781 231.253906 15.492188 232.011719 15.722656 232.765625 C 15.949219 233.515625 16.214844 234.25 16.515625 234.976562 C 16.816406 235.699219 17.152344 236.40625 17.523438 237.097656 C 17.894531 237.789062 18.296875 238.460938 18.734375 239.113281 C 19.171875 239.761719 19.640625 240.390625 20.136719 240.996094 C 20.636719 241.601562 21.160156 242.183594 21.714844 242.738281 C 22.269531 243.292969 22.851562 243.816406 23.457031 244.3125 C 24.066406 244.8125 24.695312 245.277344 25.347656 245.710938 C 26 246.148438 26.671875 246.550781 27.363281 246.917969 C 28.054688 247.289062 28.761719 247.625 29.488281 247.925781 C 30.210938 248.222656 30.949219 248.488281 31.699219 248.714844 C 32.449219 248.941406 33.210938 249.132812 33.980469 249.285156 C 34.75 249.4375 35.523438 249.554688 36.304688 249.632812 C 37.082031 249.707031 37.867188 249.746094 38.652344 249.746094 L 340.320312 249.746094 C 340.96875 249.746094 341.617188 249.746094 342.285156 249.660156 C 342.890625 249.621094 343.492188 249.554688 344.089844 249.457031 C 344.6875 249.363281 345.28125 249.238281 345.867188 249.085938 C 346.457031 248.933594 347.035156 248.757812 347.605469 248.550781 C 348.175781 248.34375 348.734375 248.113281 349.28125 247.855469 C 349.832031 247.59375 350.363281 247.3125 350.886719 247.003906 C 351.40625 246.695312 351.914062 246.359375 352.402344 246.003906 C 352.894531 245.648438 353.367188 245.269531 353.820312 244.867188 C 354.273438 244.46875 354.710938 244.046875 355.125 243.601562 C 355.539062 243.160156 355.933594 242.699219 356.304688 242.222656 C 356.675781 241.742188 357.023438 241.246094 357.347656 240.734375 C 357.671875 240.222656 357.972656 239.699219 358.246094 239.15625 C 358.523438 238.617188 358.773438 238.066406 358.996094 237.5 C 359.21875 236.9375 359.414062 236.367188 359.582031 235.785156 C 359.753906 235.203125 359.894531 234.613281 360.007812 234.015625 C 360.121094 233.421875 360.207031 232.824219 360.265625 232.21875 C 360.320312 231.617188 360.351562 231.011719 360.351562 230.40625 L 360.351562 76.097656 C 360.351562 74.835938 360.289062 73.578125 360.164062 72.324219 C 360.042969 71.070312 359.855469 69.824219 359.609375 68.589844 C 359.367188 67.351562 359.058594 66.132812 358.695312 64.925781 C 358.328125 63.71875 357.902344 62.535156 357.421875 61.371094 C 356.9375 60.207031 356.402344 59.066406 355.808594 57.957031 C 355.214844 56.84375 354.566406 55.765625 353.867188 54.71875 C 353.164062 53.671875 352.414062 52.660156 351.617188 51.683594 C 350.816406 50.710938 349.972656 49.777344 349.082031 48.886719 C 348.1875 47.996094 347.257812 47.152344 346.28125 46.351562 C 345.308594 45.550781 344.296875 44.800781 343.25 44.101562 C 342.203125 43.402344 341.121094 42.753906 340.011719 42.160156 C 338.898438 41.566406 337.761719 41.027344 336.597656 40.546875 C 335.433594 40.0625 334.246094 39.640625 333.042969 39.273438 C 331.835938 38.90625 330.613281 38.601562 329.378906 38.355469 C 328.140625 38.109375 326.898438 37.925781 325.644531 37.800781 C 324.390625 37.679688 323.132812 37.617188 321.871094 37.617188 L 73.648438 37.617188 C 72.960938 37.617188 72.273438 37.648438 71.585938 37.714844 C 70.902344 37.78125 70.21875 37.882812 69.542969 38.015625 C 68.867188 38.148438 68.199219 38.3125 67.539062 38.511719 C 66.878906 38.714844 66.230469 38.945312 65.59375 39.207031 C 64.957031 39.46875 64.335938 39.765625 63.726562 40.089844 C 63.121094 40.414062 62.527344 40.765625 61.957031 41.148438 C 61.382812 41.53125 60.828125 41.941406 60.296875 42.378906 C 59.761719 42.816406 59.253906 43.277344 58.765625 43.765625 C 58.277344 44.253906 57.816406 44.761719 57.378906 45.296875 C 56.941406 45.828125 56.53125 46.382812 56.148438 46.957031 C 55.765625 47.527344 55.414062 48.117188 55.089844 48.726562 C 54.765625 49.335938 54.46875 49.957031 54.207031 50.59375 C 53.945312 51.230469 53.714844 51.878906 53.515625 52.539062 C 53.3125 53.199219 53.148438 53.867188 53.015625 54.542969 C 52.882812 55.21875 52.78125 55.902344 52.714844 56.585938 C 52.648438 57.273438 52.617188 57.960938 52.617188 58.648438 Z M 35.910156 172.917969 L 35.910156 140.484375 C 35.910156 140.027344 35.996094 139.589844 36.171875 139.167969 C 36.34375 138.746094 36.59375 138.375 36.914062 138.050781 C 37.238281 137.726562 37.609375 137.480469 38.03125 137.304688 C 38.453125 137.128906 38.890625 137.042969 39.347656 137.042969 C 39.804688 137.042969 40.242188 137.128906 40.664062 137.304688 C 41.085938 137.480469 41.457031 137.726562 41.78125 138.050781 C 42.101562 138.375 42.351562 138.746094 42.527344 139.167969 C 42.699219 139.589844 42.789062 140.027344 42.789062 140.484375 L 42.789062 172.917969 C 42.789062 173.375 42.699219 173.8125 42.527344 174.234375 C 42.351562 174.65625 42.101562 175.027344 41.78125 175.351562 C 41.457031 175.671875 41.085938 175.921875 40.664062 176.09375 C 40.242188 176.269531 39.804688 176.355469 39.347656 176.355469 C 38.890625 176.355469 38.453125 176.269531 38.03125 176.09375 C 37.609375 175.921875 37.238281 175.671875 36.914062 175.351562 C 36.59375 175.027344 36.34375 174.65625 36.171875 174.234375 C 35.996094 173.8125 35.910156 173.375 35.910156 172.917969 Z M 35.910156 182.324219 C 35.910156 181.871094 35.996094 181.433594 36.171875 181.015625 C 36.347656 180.597656 36.59375 180.230469 36.914062 179.910156 C 37.238281 179.589844 37.605469 179.34375 38.027344 179.171875 C 38.445312 178.996094 38.882812 178.910156 39.335938 178.914062 C 39.789062 178.914062 40.222656 179 40.644531 179.175781 C 41.0625 179.347656 41.429688 179.597656 41.75 179.917969 C 42.070312 180.238281 42.316406 180.609375 42.488281 181.027344 C 42.664062 181.445312 42.75 181.882812 42.75 182.335938 C 42.75 182.789062 42.660156 183.226562 42.488281 183.644531 C 42.3125 184.0625 42.066406 184.433594 41.746094 184.753906 C 41.425781 185.074219 41.054688 185.320312 40.636719 185.492188 C 40.21875 185.667969 39.78125 185.753906 39.328125 185.753906 C 38.871094 185.757812 38.429688 185.671875 38.007812 185.5 C 37.585938 185.328125 37.210938 185.082031 36.886719 184.757812 C 36.5625 184.4375 36.3125 184.0625 36.140625 183.640625 C 35.964844 183.21875 35.878906 182.78125 35.878906 182.324219 Z M 59.773438 232.449219 C 59.410156 232.449219 59.050781 232.414062 58.699219 232.34375 C 58.34375 232.273438 58 232.167969 57.664062 232.03125 C 57.332031 231.890625 57.011719 231.722656 56.710938 231.523438 C 56.410156 231.320312 56.132812 231.09375 55.875 230.835938 C 55.621094 230.582031 55.390625 230.304688 55.191406 230.003906 C 54.988281 229.703125 54.820312 229.386719 54.679688 229.050781 C 54.542969 228.71875 54.4375 228.375 54.367188 228.019531 C 54.292969 227.664062 54.257812 227.308594 54.257812 226.945312 L 54.257812 95.832031 C 54.257812 95.46875 54.292969 95.113281 54.367188 94.757812 C 54.4375 94.402344 54.542969 94.058594 54.679688 93.722656 C 54.820312 93.390625 54.988281 93.074219 55.191406 92.773438 C 55.390625 92.472656 55.621094 92.195312 55.875 91.9375 C 56.132812 91.683594 56.410156 91.457031 56.710938 91.253906 C 57.011719 91.054688 57.332031 90.882812 57.664062 90.746094 C 58 90.609375 58.34375 90.503906 58.699219 90.433594 C 59.050781 90.363281 59.410156 90.328125 59.773438 90.328125 L 265.9375 90.328125 C 266.296875 90.328125 266.65625 90.363281 267.007812 90.433594 C 267.363281 90.507812 267.707031 90.609375 268.039062 90.75 C 268.375 90.886719 268.691406 91.058594 268.988281 91.257812 C 269.289062 91.460938 269.566406 91.6875 269.824219 91.941406 C 270.078125 92.199219 270.304688 92.476562 270.503906 92.777344 C 270.707031 93.078125 270.875 93.394531 271.011719 93.726562 C 271.152344 94.0625 271.253906 94.40625 271.324219 94.757812 C 271.394531 95.113281 271.429688 95.46875 271.429688 95.832031 L 271.429688 226.976562 C 271.429688 227.335938 271.394531 227.691406 271.324219 228.046875 C 271.253906 228.402344 271.152344 228.746094 271.011719 229.078125 C 270.875 229.414062 270.707031 229.730469 270.503906 230.03125 C 270.304688 230.328125 270.078125 230.609375 269.824219 230.863281 C 269.566406 231.117188 269.289062 231.347656 268.988281 231.546875 C 268.691406 231.75 268.375 231.917969 268.039062 232.058594 C 267.707031 232.195312 267.363281 232.300781 267.007812 232.371094 C 266.65625 232.441406 266.296875 232.476562 265.9375 232.480469 Z M 298.605469 146.105469 C 299.609375 146.105469 300.605469 146.203125 301.589844 146.398438 C 302.574219 146.59375 303.53125 146.882812 304.457031 147.265625 C 305.386719 147.648438 306.265625 148.117188 307.101562 148.675781 C 307.9375 149.234375 308.707031 149.867188 309.417969 150.574219 C 310.128906 151.285156 310.761719 152.058594 311.320312 152.890625 C 311.878906 153.726562 312.351562 154.605469 312.734375 155.53125 C 313.117188 156.460938 313.410156 157.414062 313.605469 158.398438 C 313.800781 159.382812 313.898438 160.378906 313.902344 161.382812 C 313.902344 162.386719 313.804688 163.378906 313.609375 164.363281 C 313.414062 165.347656 313.125 166.304688 312.738281 167.230469 C 312.355469 168.160156 311.886719 169.039062 311.328125 169.875 C 310.769531 170.710938 310.136719 171.480469 309.425781 172.191406 C 308.71875 172.902344 307.945312 173.535156 307.113281 174.09375 C 306.277344 174.652344 305.398438 175.121094 304.46875 175.507812 C 303.542969 175.890625 302.585938 176.179688 301.601562 176.378906 C 300.617188 176.574219 299.625 176.671875 298.621094 176.671875 C 297.617188 176.671875 296.621094 176.574219 295.636719 176.378906 C 294.652344 176.183594 293.699219 175.894531 292.769531 175.507812 C 291.84375 175.125 290.960938 174.65625 290.128906 174.097656 C 289.292969 173.539062 288.519531 172.90625 287.8125 172.195312 C 287.101562 171.488281 286.46875 170.714844 285.910156 169.878906 C 285.351562 169.046875 284.882812 168.164062 284.496094 167.238281 C 284.113281 166.3125 283.824219 165.355469 283.628906 164.371094 C 283.429688 163.386719 283.332031 162.390625 283.332031 161.386719 C 283.335938 160.386719 283.433594 159.394531 283.632812 158.414062 C 283.828125 157.429688 284.121094 156.476562 284.503906 155.554688 C 284.886719 154.628906 285.359375 153.75 285.914062 152.917969 C 286.472656 152.085938 287.105469 151.316406 287.8125 150.605469 C 288.523438 149.898438 289.292969 149.265625 290.125 148.710938 C 290.957031 148.15625 291.835938 147.683594 292.761719 147.300781 C 293.6875 146.917969 294.640625 146.625 295.621094 146.429688 C 296.605469 146.234375 297.597656 146.136719 298.597656 146.132812 Z M 320.59375 43.386719 C 321.707031 43.386719 322.816406 43.441406 323.921875 43.550781 C 325.03125 43.660156 326.128906 43.820312 327.21875 44.039062 C 328.3125 44.257812 329.390625 44.527344 330.453125 44.847656 C 331.519531 45.171875 332.566406 45.546875 333.59375 45.972656 C 334.621094 46.398438 335.625 46.871094 336.605469 47.398438 C 337.585938 47.921875 338.539062 48.492188 339.464844 49.109375 C 340.390625 49.730469 341.28125 50.390625 342.144531 51.097656 C 343.003906 51.800781 343.824219 52.546875 344.613281 53.335938 C 345.398438 54.121094 346.144531 54.945312 346.851562 55.804688 C 347.558594 56.664062 348.21875 57.558594 348.835938 58.480469 C 349.453125 59.40625 350.027344 60.359375 350.550781 61.339844 C 351.074219 62.324219 351.550781 63.328125 351.976562 64.355469 C 352.402344 65.382812 352.777344 66.429688 353.097656 67.492188 C 353.421875 68.558594 353.691406 69.636719 353.910156 70.726562 C 354.125 71.816406 354.289062 72.917969 354.398438 74.023438 C 354.507812 75.132812 354.5625 76.242188 354.5625 77.355469 L 354.5625 229.695312 C 354.566406 230.632812 354.476562 231.5625 354.296875 232.484375 C 354.117188 233.402344 353.851562 234.296875 353.496094 235.164062 C 353.136719 236.03125 352.699219 236.855469 352.179688 237.636719 C 351.664062 238.414062 351.074219 239.136719 350.410156 239.800781 C 349.75 240.464844 349.027344 241.058594 348.25 241.582031 C 347.472656 242.101562 346.648438 242.542969 345.78125 242.902344 C 344.917969 243.261719 344.023438 243.53125 343.105469 243.714844 C 342.1875 243.898438 341.257812 243.988281 340.320312 243.988281 L 338.277344 243.988281 C 336.867188 244.015625 335.496094 243.808594 334.15625 243.367188 C 333.546875 243.15625 332.957031 242.894531 332.386719 242.589844 C 331.8125 242.285156 331.269531 241.9375 330.753906 241.550781 C 330.234375 241.160156 329.75 240.734375 329.300781 240.269531 C 328.847656 239.804688 328.4375 239.308594 328.0625 238.78125 C 327.6875 238.253906 327.355469 237.703125 327.066406 237.121094 C 326.777344 236.542969 326.535156 235.945312 326.339844 235.328125 C 326.140625 234.710938 325.992188 234.085938 325.894531 233.445312 C 325.792969 232.804688 325.746094 232.164062 325.742188 231.515625 L 325.742188 109.070312 L 325.664062 95.675781 C 325.664062 89.933594 324.113281 85.304688 321.46875 81.785156 C 317.085938 75.890625 309.753906 73.078125 301.8125 73.078125 L 58.375 73.078125 L 58.375 58.648438 C 58.375 57.648438 58.472656 56.65625 58.671875 55.671875 C 58.867188 54.691406 59.15625 53.738281 59.539062 52.8125 C 59.925781 51.886719 60.394531 51.007812 60.953125 50.175781 C 61.507812 49.339844 62.144531 48.570312 62.851562 47.863281 C 63.5625 47.15625 64.332031 46.523438 65.167969 45.96875 C 66 45.414062 66.882812 44.945312 67.808594 44.5625 C 68.734375 44.183594 69.6875 43.894531 70.671875 43.703125 C 71.65625 43.507812 72.648438 43.414062 73.648438 43.414062 Z M 320.59375 43.386719 " clip-rule="nonzero"/></clipPath></defs><rect x="-37.5" width="450" fill="#ffffff" y="-37.499999" height="449.999989" fill-opacity="1"/><rect x="-37.5" width="450" fill="#ef4f51" y="-37.499999" height="449.999989" fill-opacity="1"/><g clip-path="url(#329dbea61a)"><g clip-path="url(#6c97e941d8)"><path fill="#ffffff" d="M 76.429688 223.953125 L 341.570312 223.953125 L 341.570312 56.714844 L 76.429688 56.714844 Z M 76.429688 223.953125 " fill-opacity="1" fill-rule="nonzero"/></g></g><g clip-path="url(#d89571bc8c)"><g clip-path="url(#dbb3904ccf)"><path fill="#ffffff" d="M 14.679688 249.746094 L 360.351562 249.746094 L 360.351562 37.652344 L 14.679688 37.652344 Z M 14.679688 249.746094 " fill-opacity="1" fill-rule="nonzero"/></g></g><g fill="#ffffff" fill-opacity="1"><g transform="translate(91.125925, 288.914189)"><g><path d="M 1.703125 0 L 1.703125 -16.140625 L 5.515625 -16.140625 L 10.9375 -8.46875 L 16.375 -16.140625 L 20.15625 -16.140625 L 20.15625 0 L 15.546875 0 L 15.546875 -8.171875 L 12.453125 -3.828125 L 9.4375 -3.828125 L 6.3125 -8.1875 L 6.3125 0 Z M 1.703125 0 "/></g></g></g><g fill="#ffffff" fill-opacity="1"><g transform="translate(115.237912, 288.914189)"><g><path d="M 9.578125 0.34375 C 8.285156 0.34375 7.101562 0.140625 6.03125 -0.265625 C 4.957031 -0.671875 4.03125 -1.25 3.25 -2 C 2.46875 -2.757812 1.859375 -3.65625 1.421875 -4.6875 C 0.992188 -5.71875 0.78125 -6.847656 0.78125 -8.078125 C 0.78125 -9.304688 0.992188 -10.429688 1.421875 -11.453125 C 1.859375 -12.484375 2.46875 -13.375 3.25 -14.125 C 4.03125 -14.882812 4.957031 -15.46875 6.03125 -15.875 C 7.101562 -16.28125 8.285156 -16.484375 9.578125 -16.484375 C 10.867188 -16.484375 12.046875 -16.28125 13.109375 -15.875 C 14.179688 -15.46875 15.109375 -14.882812 15.890625 -14.125 C 16.671875 -13.375 17.273438 -12.484375 17.703125 -11.453125 C 18.140625 -10.429688 18.359375 -9.304688 18.359375 -8.078125 C 18.359375 -6.847656 18.140625 -5.71875 17.703125 -4.6875 C 17.273438 -3.65625 16.671875 -2.757812 15.890625 -2 C 15.109375 -1.25 14.179688 -0.671875 13.109375 -0.265625 C 12.046875 0.140625 10.867188 0.34375 9.578125 0.34375 Z M 5.515625 -8.078125 C 5.515625 -7.273438 5.6875 -6.5625 6.03125 -5.9375 C 6.375 -5.3125 6.851562 -4.828125 7.46875 -4.484375 C 8.082031 -4.140625 8.785156 -3.96875 9.578125 -3.96875 C 10.367188 -3.96875 11.066406 -4.140625 11.671875 -4.484375 C 12.285156 -4.828125 12.765625 -5.3125 13.109375 -5.9375 C 13.453125 -6.5625 13.625 -7.273438 13.625 -8.078125 C 13.625 -8.890625 13.453125 -9.601562 13.109375 -10.21875 C 12.765625 -10.832031 12.285156 -11.3125 11.671875 -11.65625 C 11.066406 -12 10.367188 -12.171875 9.578125 -12.171875 C 8.785156 -12.171875 8.082031 -12 7.46875 -11.65625 C 6.851562 -11.3125 6.375 -10.832031 6.03125 -10.21875 C 5.6875 -9.601562 5.515625 -8.890625 5.515625 -8.078125 Z M 5.515625 -8.078125 "/></g></g></g><g fill="#ffffff" fill-opacity="1"><g transform="translate(136.652962, 288.914189)"><g><path d="M 1.703125 0 L 1.703125 -16.140625 L 9.578125 -16.140625 C 11.265625 -16.140625 12.597656 -15.75 13.578125 -14.96875 C 14.566406 -14.1875 15.0625 -13.132812 15.0625 -11.8125 C 15.0625 -11.039062 14.890625 -10.34375 14.546875 -9.71875 C 14.210938 -9.09375 13.726562 -8.601562 13.09375 -8.25 C 13.863281 -7.914062 14.460938 -7.421875 14.890625 -6.765625 C 15.328125 -6.109375 15.546875 -5.351562 15.546875 -4.5 C 15.546875 -3.625 15.3125 -2.847656 14.84375 -2.171875 C 14.375 -1.492188 13.71875 -0.960938 12.875 -0.578125 C 12.039062 -0.191406 11.078125 0 9.984375 0 Z M 6.265625 -3.453125 L 9.09375 -3.453125 C 9.644531 -3.453125 10.066406 -3.585938 10.359375 -3.859375 C 10.660156 -4.128906 10.8125 -4.503906 10.8125 -4.984375 C 10.8125 -5.460938 10.660156 -5.832031 10.359375 -6.09375 C 10.066406 -6.351562 9.644531 -6.484375 9.09375 -6.484375 L 6.265625 -6.484375 Z M 6.265625 -9.796875 L 8.6875 -9.796875 C 9.8125 -9.796875 10.375 -10.28125 10.375 -11.25 C 10.375 -12.21875 9.8125 -12.703125 8.6875 -12.703125 L 6.265625 -12.703125 Z M 6.265625 -9.796875 "/></g></g></g><g fill="#ffffff" fill-opacity="1"><g transform="translate(155.117522, 288.914189)"><g><path d="M 1.703125 0 L 1.703125 -16.140625 L 6.359375 -16.140625 L 6.359375 0 Z M 1.703125 0 "/></g></g></g><g fill="#ffffff" fill-opacity="1"><g transform="translate(165.445174, 288.914189)"><g><path d="M 1.703125 0 L 1.703125 -16.140625 L 6.359375 -16.140625 L 6.359375 -4.3125 L 12.96875 -4.3125 L 12.96875 0 Z M 1.703125 0 "/></g></g></g><g fill="#ffffff" fill-opacity="1"><g transform="translate(181.235845, 288.914189)"><g><path d="M 1.703125 0 L 1.703125 -16.140625 L 12.78125 -16.140625 L 12.78125 -12.390625 L 6.3125 -12.390625 L 6.3125 -10.03125 L 12.15625 -10.03125 L 12.15625 -6.296875 L 6.3125 -6.296875 L 6.3125 -3.8125 L 13.03125 -3.8125 L 13.03125 0 Z M 1.703125 0 "/></g></g></g><g fill="#ffffff" fill-opacity="1"><g transform="translate(197.556681, 288.914189)"><g/></g></g><g fill="#ffffff" fill-opacity="1"><g transform="translate(205.141298, 288.914189)"><g><path d="M 1.703125 0 L 1.703125 -16.140625 L 9.578125 -16.140625 C 11.265625 -16.140625 12.597656 -15.75 13.578125 -14.96875 C 14.566406 -14.1875 15.0625 -13.132812 15.0625 -11.8125 C 15.0625 -11.039062 14.890625 -10.34375 14.546875 -9.71875 C 14.210938 -9.09375 13.726562 -8.601562 13.09375 -8.25 C 13.863281 -7.914062 14.460938 -7.421875 14.890625 -6.765625 C 15.328125 -6.109375 15.546875 -5.351562 15.546875 -4.5 C 15.546875 -3.625 15.3125 -2.847656 14.84375 -2.171875 C 14.375 -1.492188 13.71875 -0.960938 12.875 -0.578125 C 12.039062 -0.191406 11.078125 0 9.984375 0 Z M 6.265625 -3.453125 L 9.09375 -3.453125 C 9.644531 -3.453125 10.066406 -3.585938 10.359375 -3.859375 C 10.660156 -4.128906 10.8125 -4.503906 10.8125 -4.984375 C 10.8125 -5.460938 10.660156 -5.832031 10.359375 -6.09375 C 10.066406 -6.351562 9.644531 -6.484375 9.09375 -6.484375 L 6.265625 -6.484375 Z M 6.265625 -9.796875 L 8.6875 -9.796875 C 9.8125 -9.796875 10.375 -10.28125 10.375 -11.25 C 10.375 -12.21875 9.8125 -12.703125 8.6875 -12.703125 L 6.265625 -12.703125 Z M 6.265625 -9.796875 "/></g></g></g><g fill="#ffffff" fill-opacity="1"><g transform="translate(223.605858, 288.914189)"><g><path d="M 9.578125 0.34375 C 8.285156 0.34375 7.101562 0.140625 6.03125 -0.265625 C 4.957031 -0.671875 4.03125 -1.25 3.25 -2 C 2.46875 -2.757812 1.859375 -3.65625 1.421875 -4.6875 C 0.992188 -5.71875 0.78125 -6.847656 0.78125 -8.078125 C 0.78125 -9.304688 0.992188 -10.429688 1.421875 -11.453125 C 1.859375 -12.484375 2.46875 -13.375 3.25 -14.125 C 4.03125 -14.882812 4.957031 -15.46875 6.03125 -15.875 C 7.101562 -16.28125 8.285156 -16.484375 9.578125 -16.484375 C 10.867188 -16.484375 12.046875 -16.28125 13.109375 -15.875 C 14.179688 -15.46875 15.109375 -14.882812 15.890625 -14.125 C 16.671875 -13.375 17.273438 -12.484375 17.703125 -11.453125 C 18.140625 -10.429688 18.359375 -9.304688 18.359375 -8.078125 C 18.359375 -6.847656 18.140625 -5.71875 17.703125 -4.6875 C 17.273438 -3.65625 16.671875 -2.757812 15.890625 -2 C 15.109375 -1.25 14.179688 -0.671875 13.109375 -0.265625 C 12.046875 0.140625 10.867188 0.34375 9.578125 0.34375 Z M 5.515625 -8.078125 C 5.515625 -7.273438 5.6875 -6.5625 6.03125 -5.9375 C 6.375 -5.3125 6.851562 -4.828125 7.46875 -4.484375 C 8.082031 -4.140625 8.785156 -3.96875 9.578125 -3.96875 C 10.367188 -3.96875 11.066406 -4.140625 11.671875 -4.484375 C 12.285156 -4.828125 12.765625 -5.3125 13.109375 -5.9375 C 13.453125 -6.5625 13.625 -7.273438 13.625 -8.078125 C 13.625 -8.890625 13.453125 -9.601562 13.109375 -10.21875 C 12.765625 -10.832031 12.285156 -11.3125 11.671875 -11.65625 C 11.066406 -12 10.367188 -12.171875 9.578125 -12.171875 C 8.785156 -12.171875 8.082031 -12 7.46875 -11.65625 C 6.851562 -11.3125 6.375 -10.832031 6.03125 -10.21875 C 5.6875 -9.601562 5.515625 -8.890625 5.515625 -8.078125 Z M 5.515625 -8.078125 "/></g></g></g><g fill="#ffffff" fill-opacity="1"><g transform="translate(245.020911, 288.914189)"><g><path d="M 9.578125 0.34375 C 8.285156 0.34375 7.101562 0.140625 6.03125 -0.265625 C 4.957031 -0.671875 4.03125 -1.25 3.25 -2 C 2.46875 -2.757812 1.859375 -3.65625 1.421875 -4.6875 C 0.992188 -5.71875 0.78125 -6.847656 0.78125 -8.078125 C 0.78125 -9.304688 0.992188 -10.429688 1.421875 -11.453125 C 1.859375 -12.484375 2.46875 -13.375 3.25 -14.125 C 4.03125 -14.882812 4.957031 -15.46875 6.03125 -15.875 C 7.101562 -16.28125 8.285156 -16.484375 9.578125 -16.484375 C 10.867188 -16.484375 12.046875 -16.28125 13.109375 -15.875 C 14.179688 -15.46875 15.109375 -14.882812 15.890625 -14.125 C 16.671875 -13.375 17.273438 -12.484375 17.703125 -11.453125 C 18.140625 -10.429688 18.359375 -9.304688 18.359375 -8.078125 C 18.359375 -6.847656 18.140625 -5.71875 17.703125 -4.6875 C 17.273438 -3.65625 16.671875 -2.757812 15.890625 -2 C 15.109375 -1.25 14.179688 -0.671875 13.109375 -0.265625 C 12.046875 0.140625 10.867188 0.34375 9.578125 0.34375 Z M 5.515625 -8.078125 C 5.515625 -7.273438 5.6875 -6.5625 6.03125 -5.9375 C 6.375 -5.3125 6.851562 -4.828125 7.46875 -4.484375 C 8.082031 -4.140625 8.785156 -3.96875 9.578125 -3.96875 C 10.367188 -3.96875 11.066406 -4.140625 11.671875 -4.484375 C 12.285156 -4.828125 12.765625 -5.3125 13.109375 -5.9375 C 13.453125 -6.5625 13.625 -7.273438 13.625 -8.078125 C 13.625 -8.890625 13.453125 -9.601562 13.109375 -10.21875 C 12.765625 -10.832031 12.285156 -11.3125 11.671875 -11.65625 C 11.066406 -12 10.367188 -12.171875 9.578125 -12.171875 C 8.785156 -12.171875 8.082031 -12 7.46875 -11.65625 C 6.851562 -11.3125 6.375 -10.832031 6.03125 -10.21875 C 5.6875 -9.601562 5.515625 -8.890625 5.515625 -8.078125 Z M 5.515625 -8.078125 "/></g></g></g><g fill="#ffffff" fill-opacity="1"><g transform="translate(266.435964, 288.914189)"><g><path d="M 1.703125 0 L 1.703125 -16.140625 L 6.359375 -16.140625 L 6.359375 -10.359375 L 7.15625 -10.359375 C 7.707031 -10.359375 8.144531 -10.40625 8.46875 -10.5 C 8.800781 -10.601562 9.070312 -10.78125 9.28125 -11.03125 C 9.488281 -11.289062 9.671875 -11.648438 9.828125 -12.109375 L 11.28125 -16.140625 L 16.328125 -16.140625 L 13.9375 -10.125 C 13.5625 -9.195312 13.128906 -8.4375 12.640625 -7.84375 L 16.875 0 L 11.484375 0 L 8.390625 -6.109375 L 6.359375 -6.109375 L 6.359375 0 Z M 1.703125 0 "/></g></g></g><g fill="#ffffff" fill-opacity="1"><g transform="translate(125.557673, 304.683232)"><g><path d="M 3.734375 0 L 2.484375 0 L 2.484375 -6.390625 L 0.125 -6.390625 L 0.125 -7.515625 L 6.109375 -7.515625 L 6.109375 -6.390625 L 3.734375 -6.390625 Z M 3.734375 0 "/></g></g></g><g fill="#ffffff" fill-opacity="1"><g transform="translate(137.687983, 304.683232)"><g><path d="M 5.671875 0 L 0.703125 0 L 0.703125 -7.515625 L 5.671875 -7.515625 L 5.671875 -6.390625 L 1.953125 -6.390625 L 1.953125 -4.328125 L 5.25 -4.328125 L 5.25 -3.203125 L 1.953125 -3.203125 L 1.953125 -1.125 L 5.671875 -1.125 Z M 5.671875 0 "/></g></g></g><g fill="#ffffff" fill-opacity="1"><g transform="translate(149.690325, 304.683232)"><g><path d="M 4 0.125 C 3.382812 0.125 2.851562 0.0195312 2.40625 -0.1875 C 1.957031 -0.394531 1.585938 -0.675781 1.296875 -1.03125 C 1.003906 -1.394531 0.785156 -1.8125 0.640625 -2.28125 C 0.492188 -2.757812 0.421875 -3.253906 0.421875 -3.765625 C 0.421875 -4.273438 0.492188 -4.757812 0.640625 -5.21875 C 0.785156 -5.6875 1.003906 -6.101562 1.296875 -6.46875 C 1.585938 -6.832031 1.957031 -7.113281 2.40625 -7.3125 C 2.851562 -7.519531 3.382812 -7.625 4 -7.625 C 4.601562 -7.625 5.125 -7.523438 5.5625 -7.328125 C 6.007812 -7.128906 6.363281 -6.847656 6.625 -6.484375 C 6.894531 -6.128906 7.066406 -5.71875 7.140625 -5.25 L 5.765625 -5.25 C 5.691406 -5.65625 5.492188 -5.96875 5.171875 -6.1875 C 4.847656 -6.40625 4.453125 -6.515625 3.984375 -6.515625 C 3.484375 -6.515625 3.0625 -6.394531 2.71875 -6.15625 C 2.382812 -5.925781 2.132812 -5.601562 1.96875 -5.1875 C 1.800781 -4.769531 1.71875 -4.296875 1.71875 -3.765625 C 1.71875 -3.222656 1.800781 -2.738281 1.96875 -2.3125 C 2.132812 -1.894531 2.382812 -1.566406 2.71875 -1.328125 C 3.0625 -1.097656 3.484375 -0.984375 3.984375 -0.984375 C 4.453125 -0.984375 4.847656 -1.097656 5.171875 -1.328125 C 5.492188 -1.566406 5.691406 -1.914062 5.765625 -2.375 L 7.140625 -2.375 C 7.023438 -1.613281 6.695312 -1.003906 6.15625 -0.546875 C 5.613281 -0.0976562 4.894531 0.125 4 0.125 Z M 4 0.125 "/></g></g></g><g fill="#ffffff" fill-opacity="1"><g transform="translate(163.08063, 304.683232)"><g><path d="M 1.953125 0 L 0.703125 0 L 0.703125 -7.515625 L 1.953125 -7.515625 L 1.953125 -4.328125 L 5.34375 -4.328125 L 5.34375 -7.515625 L 6.59375 -7.515625 L 6.59375 0 L 5.34375 0 L 5.34375 -3.203125 L 1.953125 -3.203125 Z M 1.953125 0 "/></g></g></g><g fill="#ffffff" fill-opacity="1"><g transform="translate(176.303587, 304.683232)"><g><path d="M 1.953125 0 L 0.703125 0 L 0.703125 -7.515625 L 2.21875 -7.515625 L 5.390625 -1.71875 L 5.390625 -7.515625 L 6.640625 -7.515625 L 6.640625 0 L 5.125 0 L 1.953125 -5.78125 Z M 1.953125 0 "/></g></g></g><g fill="#ffffff" fill-opacity="1"><g transform="translate(189.556085, 304.683232)"><g><path d="M 4.015625 0.125 C 3.398438 0.125 2.867188 0.0195312 2.421875 -0.1875 C 1.972656 -0.394531 1.597656 -0.675781 1.296875 -1.03125 C 1.003906 -1.394531 0.785156 -1.8125 0.640625 -2.28125 C 0.492188 -2.75 0.421875 -3.242188 0.421875 -3.765625 C 0.421875 -4.273438 0.492188 -4.757812 0.640625 -5.21875 C 0.785156 -5.6875 1.003906 -6.101562 1.296875 -6.46875 C 1.597656 -6.832031 1.972656 -7.113281 2.421875 -7.3125 C 2.867188 -7.519531 3.398438 -7.625 4.015625 -7.625 C 4.628906 -7.625 5.160156 -7.519531 5.609375 -7.3125 C 6.054688 -7.113281 6.425781 -6.832031 6.71875 -6.46875 C 7.019531 -6.101562 7.242188 -5.6875 7.390625 -5.21875 C 7.535156 -4.757812 7.609375 -4.273438 7.609375 -3.765625 C 7.609375 -3.242188 7.535156 -2.75 7.390625 -2.28125 C 7.242188 -1.8125 7.019531 -1.394531 6.71875 -1.03125 C 6.425781 -0.675781 6.054688 -0.394531 5.609375 -0.1875 C 5.160156 0.0195312 4.628906 0.125 4.015625 0.125 Z M 4.015625 -1 C 4.515625 -1 4.929688 -1.113281 5.265625 -1.34375 C 5.609375 -1.582031 5.867188 -1.910156 6.046875 -2.328125 C 6.222656 -2.742188 6.3125 -3.222656 6.3125 -3.765625 C 6.3125 -4.296875 6.222656 -4.769531 6.046875 -5.1875 C 5.867188 -5.601562 5.609375 -5.925781 5.265625 -6.15625 C 4.929688 -6.394531 4.515625 -6.515625 4.015625 -6.515625 C 3.523438 -6.515625 3.109375 -6.394531 2.765625 -6.15625 C 2.421875 -5.925781 2.160156 -5.601562 1.984375 -5.1875 C 1.804688 -4.769531 1.71875 -4.296875 1.71875 -3.765625 C 1.71875 -3.222656 1.804688 -2.742188 1.984375 -2.328125 C 2.160156 -1.910156 2.421875 -1.582031 2.765625 -1.34375 C 3.109375 -1.113281 3.523438 -1 4.015625 -1 Z M 4.015625 -1 "/></g></g></g><g fill="#ffffff" fill-opacity="1"><g transform="translate(203.507485, 304.683232)"><g><path d="M 5.203125 0 L 0.703125 0 L 0.703125 -7.515625 L 1.953125 -7.515625 L 1.953125 -1.125 L 5.203125 -1.125 Z M 5.203125 0 "/></g></g></g><g fill="#ffffff" fill-opacity="1"><g transform="translate(214.73217, 304.683232)"><g><path d="M 4.015625 0.125 C 3.398438 0.125 2.867188 0.0195312 2.421875 -0.1875 C 1.972656 -0.394531 1.597656 -0.675781 1.296875 -1.03125 C 1.003906 -1.394531 0.785156 -1.8125 0.640625 -2.28125 C 0.492188 -2.75 0.421875 -3.242188 0.421875 -3.765625 C 0.421875 -4.273438 0.492188 -4.757812 0.640625 -5.21875 C 0.785156 -5.6875 1.003906 -6.101562 1.296875 -6.46875 C 1.597656 -6.832031 1.972656 -7.113281 2.421875 -7.3125 C 2.867188 -7.519531 3.398438 -7.625 4.015625 -7.625 C 4.628906 -7.625 5.160156 -7.519531 5.609375 -7.3125 C 6.054688 -7.113281 6.425781 -6.832031 6.71875 -6.46875 C 7.019531 -6.101562 7.242188 -5.6875 7.390625 -5.21875 C 7.535156 -4.757812 7.609375 -4.273438 7.609375 -3.765625 C 7.609375 -3.242188 7.535156 -2.75 7.390625 -2.28125 C 7.242188 -1.8125 7.019531 -1.394531 6.71875 -1.03125 C 6.425781 -0.675781 6.054688 -0.394531 5.609375 -0.1875 C 5.160156 0.0195312 4.628906 0.125 4.015625 0.125 Z M 4.015625 -1 C 4.515625 -1 4.929688 -1.113281 5.265625 -1.34375 C 5.609375 -1.582031 5.867188 -1.910156 6.046875 -2.328125 C 6.222656 -2.742188 6.3125 -3.222656 6.3125 -3.765625 C 6.3125 -4.296875 6.222656 -4.769531 6.046875 -5.1875 C 5.867188 -5.601562 5.609375 -5.925781 5.265625 -6.15625 C 4.929688 -6.394531 4.515625 -6.515625 4.015625 -6.515625 C 3.523438 -6.515625 3.109375 -6.394531 2.765625 -6.15625 C 2.421875 -5.925781 2.160156 -5.601562 1.984375 -5.1875 C 1.804688 -4.769531 1.71875 -4.296875 1.71875 -3.765625 C 1.71875 -3.222656 1.804688 -2.742188 1.984375 -2.328125 C 2.160156 -1.910156 2.421875 -1.582031 2.765625 -1.34375 C 3.109375 -1.113281 3.523438 -1 4.015625 -1 Z M 4.015625 -1 "/></g></g></g><g fill="#ffffff" fill-opacity="1"><g transform="translate(228.68357, 304.683232)"><g><path d="M 4.046875 0.125 C 3.410156 0.125 2.863281 0.0195312 2.40625 -0.1875 C 1.957031 -0.40625 1.582031 -0.695312 1.28125 -1.0625 C 0.988281 -1.425781 0.769531 -1.835938 0.625 -2.296875 C 0.476562 -2.765625 0.40625 -3.25 0.40625 -3.75 C 0.40625 -4.257812 0.476562 -4.742188 0.625 -5.203125 C 0.769531 -5.671875 0.988281 -6.085938 1.28125 -6.453125 C 1.582031 -6.816406 1.957031 -7.101562 2.40625 -7.3125 C 2.863281 -7.519531 3.40625 -7.625 4.03125 -7.625 C 4.96875 -7.625 5.710938 -7.40625 6.265625 -6.96875 C 6.828125 -6.53125 7.195312 -5.957031 7.375 -5.25 L 5.984375 -5.25 C 5.847656 -5.644531 5.613281 -5.953125 5.28125 -6.171875 C 4.957031 -6.398438 4.539062 -6.515625 4.03125 -6.515625 C 3.5 -6.515625 3.0625 -6.390625 2.71875 -6.140625 C 2.375 -5.890625 2.117188 -5.554688 1.953125 -5.140625 C 1.785156 -4.722656 1.703125 -4.265625 1.703125 -3.765625 C 1.703125 -3.253906 1.789062 -2.785156 1.96875 -2.359375 C 2.15625 -1.941406 2.425781 -1.609375 2.78125 -1.359375 C 3.132812 -1.109375 3.578125 -0.984375 4.109375 -0.984375 C 4.753906 -0.984375 5.265625 -1.15625 5.640625 -1.5 C 6.023438 -1.851562 6.21875 -2.347656 6.21875 -2.984375 L 4.515625 -2.984375 L 4.515625 -4.03125 L 7.46875 -4.03125 L 7.46875 0 L 6.3125 0 L 6.3125 -0.921875 C 6.050781 -0.546875 5.710938 -0.273438 5.296875 -0.109375 C 4.878906 0.046875 4.460938 0.125 4.046875 0.125 Z M 4.046875 0.125 "/></g></g></g><g fill="#ffffff" fill-opacity="1"><g transform="translate(242.615274, 304.683232)"><g><path d="M 4.0625 0 L 2.75 0 L 2.75 -2.90625 L -0.015625 -7.515625 L 1.453125 -7.515625 L 3.390625 -4.140625 L 5.359375 -7.515625 L 6.8125 -7.515625 L 4.0625 -2.90625 Z M 4.0625 0 "/></g></g></g></svg>